Coordinates
version=1
nRows=9
nColumns=36
inDegrees=yes

Units are S.I. units (second, meters, Newtons, ...)
If the header above contains a line with 'inDegrees', this indicates whether rotational values are in degrees (yes) or radians (no).

endheader
time	pelvis_tilt	pelvis_list	pelvis_rotation	pelvis_tx	pelvis_ty	pelvis_tz	hip_flexion_r	hip_adduction_r	hip_rotation_r	knee_angle_r	knee_angle_r_beta	ankle_angle_r	subtalar_angle_r	mtp_angle_r	hip_flexion_l	hip_adduction_l	hip_rotation_l	knee_angle_l	knee_angle_l_beta	ankle_angle_l	subtalar_angle_l	mtp_angle_l	lumbar_extension	lumbar_bending	lumbar_rotation	arm_flex_r	arm_add_r	arm_rot_r	elbow_flex_r	pro_sup_r	arm_flex_l	arm_add_l	arm_rot_l	elbow_flex_l	pro_sup_l
      0.00000000	     -2.49693813	     -1.23735142	     14.78697817	      0.01364550	      1.27923905	      0.13546013	      2.77592174	     -0.80338688	     -0.68106770	      6.21575057	      0.10848531	      9.13374003	     -9.74465730	     -6.61602109	     10.07294366	     -0.97544829	      1.76766297	     14.05611248	      0.24532544	     10.00377050	     -8.22732807	     -6.61602109	     -7.33029599	     -0.20619711	     -3.30961911	      7.91123112	     -9.02819597	     14.30159259	     28.20850042	     77.53210163	      3.65766320	     -8.54728977	      5.80808065	     39.88749939	     77.07008039
      0.01666670	     -3.61659134	     -2.57401438	     13.53950239	      0.01493783	      1.27648027	      0.13573968	      4.48446477	      0.42071563	      0.93656519	      6.59726821	      0.11514405	      9.94139699	     -8.73557522	     -6.93906734	     11.47107630	     -1.86960483	      1.14497508	     13.86515123	      0.24199254	      9.38062053	     -9.32336749	     -6.93906734	     -5.10774248	      1.19900490	     -2.82109872	      7.78990264	     -8.82301649	     10.35521641	     28.92984450	     84.51100016	      2.70397709	     -6.79616442	      0.56546602	     39.90739260	     81.07280375
      0.03333330	     -4.32740916	     -2.65541239	     12.98836577	      0.01571166	      1.27507058	      0.13659986	      4.74855574	      0.35264877	      1.02027816	      5.77779803	      0.10084160	     10.17255429	     -8.93263996	     -6.96359751	     12.27580282	     -1.74410079	      0.73023121	     13.80996714	      0.24102940	      9.86398215	     -9.56256867	     -6.96359751	     -4.32165018	      0.96474980	     -2.52159729	      7.69302653	     -8.70124149	     10.21051855	     29.90934609	     83.55488222	      2.32360568	     -6.84887568	      0.47517194	     40.84120031	     80.16315019
      0.05000000	     -4.14928300	     -2.23828823	     12.09906271	      0.01568441	      1.27851954	      0.13740472	      4.58810104	      0.01292110	      1.96871158	      5.49352148	      0.09588004	      9.78374803	     -9.64112486	     -7.02257581	     11.25179068	     -1.48762477	      0.11124745	     12.84782934	      0.22423692	      9.90190350	     -9.54244424	     -7.02257581	     -4.80662219	      0.42732652	     -1.84927611	      8.11910364	     -8.27365880	      9.03696466	     29.41306512	     82.04585640	      2.96189350	     -6.81549150	     -0.31948121	     40.33179906	     78.92627512
      0.06666670	     -4.19474584	     -2.13238608	     11.51929772	      0.01593545	      1.27777530	      0.13840842	      4.42720345	     -0.04465080	      2.35422105	      4.90424066	      0.08559515	      9.26719236	    -10.07261059	     -7.07206531	     10.87058153	     -1.41277936	     -0.14494977	     12.54638681	      0.21897576	     10.18610695	     -9.53875534	     -7.07206531	     -4.87767074	      0.32691249	     -1.46245335	      8.12178929	     -8.19863292	      8.72939064	     29.84392900	     80.48589981	      3.08973308	     -6.81444987	     -0.41524885	     40.54920999	     77.78428587
      0.08333330	     -4.31734574	     -2.03858846	     11.12611943	      0.02217515	      1.27441913	      0.13542387	      4.24995784	     -0.08846845	      2.79067862	      4.43963227	      0.07748620	      8.82612655	    -10.67927911	     -7.10428009	     10.59863154	     -1.26545400	     -0.25483627	     12.54622257	      0.21897289	     10.75408355	     -9.29227931	     -7.10428009	     -4.35346267	      0.25442907	     -1.24186337	      7.68230376	     -8.41783759	      9.21618081	     30.12126640	     80.09317188	      3.12189976	     -6.91636565	      0.28152814	     39.91554086	     78.60295113
      0.10000000	     -4.31612266	     -1.89704640	     10.74118235	      0.02271363	      1.27719327	      0.13626931	      3.98214734	     -0.18550526	      3.08196910	      4.06946581	      0.07102558	      8.70947673	    -10.76912027	     -7.13777132	     10.16797262	     -1.09862499	     -0.38753499	     12.38044494	      0.21607953	     10.97906847	     -9.22926117	     -7.13777132	     -4.17794918	      0.15765686	     -1.05283049	      7.38411885	     -8.43843829	      9.42343614	     30.51752693	     79.21520149	      2.99654992	     -6.83431338	      0.22581829	     39.71994094	     78.05154875
      0.11666670	     -4.32010676	     -1.79906874	     10.49025378	      0.02246504	      1.27692322	      0.13614581	      3.76430517	     -0.24955645	      3.46625727	      3.76288032	      0.06567465	      8.44533174	    -11.24442085	     -7.16405510	      9.87620214	     -0.98346043	     -0.38706719	     12.32182158	      0.21505636	     11.09012317	     -9.43288103	     -7.16405510	     -3.95080758	      0.08932425	     -0.93086938	      7.25535925	     -8.44357351	      9.84732242	     30.60643194	     78.49150845	      2.97426044	     -6.74331354	      0.34315077	     39.17781185	     77.66948411
      0.13333330	     -4.64789050	     -1.81996754	     10.19287437	      0.02259176	      1.27065816	      0.13706770	      4.04368092	     -0.25252010	      3.88854921	      3.65810894	      0.06384605	      8.37616777	    -12.00293093	     -7.21666662	     10.18003745	     -0.93483523	     -0.30744326	     12.37823456	      0.21604095	     11.48116536	     -9.81200390	     -7.21666662	     -3.28460878	      0.10108323	     -0.74128629	      7.27188505	     -8.70389075	     11.26678695	     30.83631358	     78.17943445	      2.96138137	     -6.84243809	      1.00463699	     38.56403644	     78.40477853
